<svg xmlns="http://www.w3.org/2000/svg" xmlns:xlink="http://www.w3.org/1999/xlink" version="1.1" x="0px" y="0px" viewBox="0 0 100 125" style="enable-background:new 0 0 100 100;" xml:space="preserve"><path d="M88.2,53.4c0.8,0,1.5-0.7,1.5-1.5V39.2c0-0.8-0.7-1.5-1.5-1.5h-8.6v-6.1c0-0.8-0.7-1.5-1.5-1.5H51.5v-4.6h13.7  c0.8,0,1.5-0.7,1.5-1.5V5c0-0.8-0.7-1.5-1.5-1.5H34.8c-0.8,0-1.5,0.7-1.5,1.5v19c0,0.8,0.7,1.5,1.5,1.5h13.7v4.6H21.9  c-0.8,0-1.5,0.7-1.5,1.5v6.1h-8.6c-0.8,0-1.5,0.7-1.5,1.5v12.7c0,0.8,0.7,1.5,1.5,1.5H32c0.8,0,1.5-0.7,1.5-1.5V39.2  c0-0.8-0.7-1.5-1.5-1.5h-8.6v-4.6h25.1v4.6h-8.6c-0.8,0-1.5,0.7-1.5,1.5v12.7c0,0.8,0.7,1.5,1.5,1.5h8.9v5.9h-8.9  c-0.8,0-1.5,0.7-1.5,1.5v12.7c0,0.8,0.7,1.5,1.5,1.5h20.2c0.8,0,1.5-0.7,1.5-1.5V60.8c0-0.8-0.7-1.5-1.5-1.5h-8.3v-5.9h8.3  c0.8,0,1.5-0.7,1.5-1.5V39.2c0-0.8-0.7-1.5-1.5-1.5h-8.6v-4.6h25.1v4.6H68c-0.8,0-1.5,0.7-1.5,1.5v12.7c0,0.8,0.7,1.5,1.5,1.5h8.6  v5.9H68c-0.8,0-1.5,0.7-1.5,1.5v12.7c0,0.8,0.7,1.5,1.5,1.5h8.6v5.9H68c-0.8,0-1.5,0.7-1.5,1.5V95c0,0.8,0.7,1.5,1.5,1.5h20.2  c0.8,0,1.5-0.7,1.5-1.5V82.3c0-0.8-0.7-1.5-1.5-1.5h-8.6v-5.9h8.6c0.8,0,1.5-0.7,1.5-1.5V60.8c0-0.8-0.7-1.5-1.5-1.5h-8.6v-5.9H88.2  z M36.3,6.5h27.3v16H36.3V6.5z M30.5,50.4H13.3v-9.7h17.2V50.4z M58.6,71.9H41.4v-9.7h17.2V71.9z M58.6,50.4H41.4v-9.7h17.2V50.4z   M86.7,93.5H69.5v-9.7h17.2V93.5z M86.7,71.9H69.5v-9.7h17.2V71.9z M69.5,40.7h17.2v9.7H69.5V40.7z"/><text x="0" y="115" fill="#000000" font-size="5px" font-weight="bold" font-family="'Helvetica Neue', Helvetica, Arial-Unicode, Arial, Sans-serif">Created by Justin Blake</text><text x="0" y="120" fill="#000000" font-size="5px" font-weight="bold" font-family="'Helvetica Neue', Helvetica, Arial-Unicode, Arial, Sans-serif">from the Noun Project</text></svg>